<mxfile host="Electron" modified="2023-06-02T11:13:27.530Z" agent="Mozilla/5.0 (X11; Linux x86_64) AppleWebKit/537.36 (KHTML, like Gecko) draw.io/21.2.8 Chrome/112.0.5615.165 Electron/24.2.0 Safari/537.36" etag="CKzYinI0LaZS5yaeuYqU" version="21.2.8" type="device">
  <diagram id="C5RBs43oDa-KdzZeNtuy" name="Page-1">
    <mxGraphModel dx="1941" dy="833" grid="1" gridSize="15" guides="1" tooltips="1" connect="1" arrows="1" fold="1" page="1" pageScale="1" pageWidth="827" pageHeight="1169" math="0" shadow="0">
      <root>
        <mxCell id="WIyWlLk6GJQsqaUBKTNV-0" />
        <mxCell id="WIyWlLk6GJQsqaUBKTNV-1" parent="WIyWlLk6GJQsqaUBKTNV-0" />
        <mxCell id="zreawNuFnjStj_NtMacD-37" style="edgeStyle=orthogonalEdgeStyle;shape=connector;curved=1;rounded=1;orthogonalLoop=1;jettySize=auto;html=1;exitX=0;exitY=0.5;exitDx=0;exitDy=0;entryX=1;entryY=0.25;entryDx=0;entryDy=0;labelBackgroundColor=default;strokeColor=default;fontFamily=Helvetica;fontSize=11;fontColor=default;startArrow=diamondThin;startFill=1;endArrow=open;startSize=14;endSize=12;" parent="WIyWlLk6GJQsqaUBKTNV-1" source="Vq0MoJa__wd2L4AR59Rn-7" target="rwQv_S5MMSxk42RyZbyw-3" edge="1">
          <mxGeometry relative="1" as="geometry" />
        </mxCell>
        <mxCell id="Vq0MoJa__wd2L4AR59Rn-7" value="&lt;p style=&quot;margin:0px;margin-top:4px;text-align:center;&quot;&gt;&lt;b style=&quot;background-color: initial;&quot;&gt;Scene&lt;/b&gt;&lt;br&gt;&lt;/p&gt;&lt;hr size=&quot;1&quot;&gt;&lt;p style=&quot;margin:0px;margin-left:4px;&quot;&gt;...&lt;/p&gt;&lt;hr size=&quot;1&quot;&gt;&lt;p style=&quot;margin:0px;margin-left:4px;&quot;&gt;+add(BaseObject)&lt;br&gt;&lt;/p&gt;&lt;p style=&quot;margin:0px;margin-left:4px;&quot;&gt;&lt;span style=&quot;background-color: initial;&quot;&gt;+get()&lt;/span&gt;&lt;/p&gt;&lt;p style=&quot;border-color: var(--border-color); margin: 0px 0px 0px 4px;&quot;&gt;+remove()&lt;/p&gt;&lt;p style=&quot;border-color: var(--border-color); margin: 0px 0px 0px 4px;&quot;&gt;+count()&lt;/p&gt;" style="verticalAlign=top;align=left;overflow=fill;fontSize=12;fontFamily=Helvetica;html=1;whiteSpace=wrap;" parent="WIyWlLk6GJQsqaUBKTNV-1" vertex="1">
          <mxGeometry x="84" y="525" width="165" height="120" as="geometry" />
        </mxCell>
        <mxCell id="rwQv_S5MMSxk42RyZbyw-3" value="&lt;p style=&quot;margin:0px;margin-top:4px;text-align:center;&quot;&gt;&lt;b&gt;BaseObject&lt;/b&gt;&lt;/p&gt;&lt;hr size=&quot;1&quot;&gt;&lt;p style=&quot;margin:0px;margin-left:4px;&quot;&gt;...&lt;/p&gt;&lt;hr size=&quot;1&quot;&gt;&lt;p style=&quot;margin:0px;margin-left:4px;&quot;&gt;&lt;span style=&quot;background-color: initial;&quot;&gt;+trasform(Matrix3D)&lt;/span&gt;&lt;br&gt;&lt;/p&gt;&lt;p style=&quot;margin:0px;margin-left:4px;&quot;&gt;&lt;span style=&quot;background-color: initial;&quot;&gt;+request()&lt;/span&gt;&lt;/p&gt;&lt;p style=&quot;margin:0px;margin-left:4px;&quot;&gt;+clone()&lt;/p&gt;&lt;p style=&quot;margin:0px;margin-left:4px;&quot;&gt;+add()&lt;/p&gt;&lt;p style=&quot;margin:0px;margin-left:4px;&quot;&gt;+remove()&lt;/p&gt;&lt;p style=&quot;margin:0px;margin-left:4px;&quot;&gt;+isComposite()&lt;/p&gt;&lt;p style=&quot;margin:0px;margin-left:4px;&quot;&gt;+isVisible()&lt;/p&gt;" style="verticalAlign=top;align=left;overflow=fill;fontSize=12;fontFamily=Helvetica;html=1;whiteSpace=wrap;" parent="WIyWlLk6GJQsqaUBKTNV-1" vertex="1">
          <mxGeometry x="-431.25" y="495" width="187.5" height="165" as="geometry" />
        </mxCell>
        <mxCell id="rwQv_S5MMSxk42RyZbyw-4" value="&lt;p style=&quot;margin:0px;margin-top:4px;text-align:center;&quot;&gt;&lt;b&gt;Point3D&lt;/b&gt;&lt;/p&gt;&lt;hr size=&quot;1&quot;&gt;&lt;p style=&quot;margin:0px;margin-left:4px;&quot;&gt;...&lt;/p&gt;&lt;hr size=&quot;1&quot;&gt;&lt;p style=&quot;border-color: var(--border-color); margin: 0px 0px 0px 4px;&quot;&gt;+getX()&lt;br style=&quot;border-color: var(--border-color);&quot;&gt;&lt;/p&gt;&lt;p style=&quot;border-color: var(--border-color); margin: 0px 0px 0px 4px;&quot;&gt;+getY()&lt;br style=&quot;border-color: var(--border-color);&quot;&gt;&lt;/p&gt;&lt;p style=&quot;border-color: var(--border-color); margin: 0px 0px 0px 4px;&quot;&gt;+getZ()&lt;/p&gt;&lt;p style=&quot;border-color: var(--border-color); margin: 0px 0px 0px 4px;&quot;&gt;+setX()&lt;br style=&quot;border-color: var(--border-color);&quot;&gt;&lt;/p&gt;&lt;p style=&quot;border-color: var(--border-color); margin: 0px 0px 0px 4px;&quot;&gt;+setY()&lt;br style=&quot;border-color: var(--border-color);&quot;&gt;&lt;/p&gt;&lt;p style=&quot;border-color: var(--border-color); margin: 0px 0px 0px 4px;&quot;&gt;+setZ()&lt;/p&gt;" style="verticalAlign=top;align=left;overflow=fill;fontSize=12;fontFamily=Helvetica;html=1;whiteSpace=wrap;" parent="WIyWlLk6GJQsqaUBKTNV-1" vertex="1">
          <mxGeometry x="-682.5" y="1276.25" width="150" height="145" as="geometry" />
        </mxCell>
        <mxCell id="rwQv_S5MMSxk42RyZbyw-5" value="&lt;p style=&quot;margin:0px;margin-top:4px;text-align:center;&quot;&gt;&lt;b&gt;Vector3D&lt;/b&gt;&lt;/p&gt;&lt;hr size=&quot;1&quot;&gt;&lt;p style=&quot;margin:0px;margin-left:4px;&quot;&gt;...&lt;/p&gt;&lt;hr size=&quot;1&quot;&gt;&lt;p style=&quot;border-color: var(--border-color); margin: 0px 0px 0px 4px;&quot;&gt;+getX()&lt;br style=&quot;border-color: var(--border-color);&quot;&gt;&lt;/p&gt;&lt;p style=&quot;border-color: var(--border-color); margin: 0px 0px 0px 4px;&quot;&gt;+getY()&lt;br style=&quot;border-color: var(--border-color);&quot;&gt;&lt;/p&gt;&lt;p style=&quot;border-color: var(--border-color); margin: 0px 0px 0px 4px;&quot;&gt;+getZ()&lt;/p&gt;&lt;p style=&quot;border-color: var(--border-color); margin: 0px 0px 0px 4px;&quot;&gt;+setX()&lt;br style=&quot;border-color: var(--border-color);&quot;&gt;&lt;/p&gt;&lt;p style=&quot;border-color: var(--border-color); margin: 0px 0px 0px 4px;&quot;&gt;+setY()&lt;br style=&quot;border-color: var(--border-color);&quot;&gt;&lt;/p&gt;&lt;p style=&quot;border-color: var(--border-color); margin: 0px 0px 0px 4px;&quot;&gt;+setZ()&lt;/p&gt;" style="verticalAlign=top;align=left;overflow=fill;fontSize=12;fontFamily=Helvetica;html=1;whiteSpace=wrap;" parent="WIyWlLk6GJQsqaUBKTNV-1" vertex="1">
          <mxGeometry x="2955" y="510" width="150" height="150" as="geometry" />
        </mxCell>
        <mxCell id="rwQv_S5MMSxk42RyZbyw-7" value="&lt;p style=&quot;margin:0px;margin-top:4px;text-align:center;&quot;&gt;&lt;b&gt;Segment3D&lt;/b&gt;&lt;/p&gt;&lt;hr size=&quot;1&quot;&gt;&lt;p style=&quot;margin:0px;margin-left:4px;&quot;&gt;...&lt;/p&gt;&lt;hr size=&quot;1&quot;&gt;&lt;p style=&quot;border-color: var(--border-color); margin: 0px 0px 0px 4px;&quot;&gt;+getFirst()&lt;br style=&quot;border-color: var(--border-color);&quot;&gt;&lt;/p&gt;&lt;p style=&quot;border-color: var(--border-color); margin: 0px 0px 0px 4px;&quot;&gt;+setFirst()&lt;br style=&quot;border-color: var(--border-color);&quot;&gt;&lt;/p&gt;&lt;p style=&quot;border-color: var(--border-color); margin: 0px 0px 0px 4px;&quot;&gt;+getSecond()&lt;br style=&quot;border-color: var(--border-color);&quot;&gt;&lt;/p&gt;&lt;p style=&quot;border-color: var(--border-color); margin: 0px 0px 0px 4px;&quot;&gt;+setSecond()&lt;br style=&quot;border-color: var(--border-color);&quot;&gt;&lt;/p&gt;&lt;div&gt;&lt;br&gt;&lt;/div&gt;" style="verticalAlign=top;align=left;overflow=fill;fontSize=12;fontFamily=Helvetica;html=1;whiteSpace=wrap;" parent="WIyWlLk6GJQsqaUBKTNV-1" vertex="1">
          <mxGeometry x="-135" y="1290" width="150" height="117.5" as="geometry" />
        </mxCell>
        <mxCell id="rwQv_S5MMSxk42RyZbyw-8" value="&lt;p style=&quot;margin:0px;margin-top:4px;text-align:center;&quot;&gt;&lt;b&gt;Matrix3D&lt;/b&gt;&lt;/p&gt;&lt;hr size=&quot;1&quot;&gt;&lt;p style=&quot;margin:0px;margin-left:4px;&quot;&gt;...&lt;/p&gt;&lt;hr size=&quot;1&quot;&gt;&lt;p style=&quot;border-color: var(--border-color); margin: 0px 0px 0px 4px;&quot;&gt;+rotateOX()&lt;br style=&quot;border-color: var(--border-color);&quot;&gt;&lt;/p&gt;&lt;p style=&quot;border-color: var(--border-color); margin: 0px 0px 0px 4px;&quot;&gt;+rotateOY()&lt;br style=&quot;border-color: var(--border-color);&quot;&gt;&lt;/p&gt;&lt;p style=&quot;border-color: var(--border-color); margin: 0px 0px 0px 4px;&quot;&gt;+rotateOZ()&lt;/p&gt;&lt;p style=&quot;border-color: var(--border-color); margin: 0px 0px 0px 4px;&quot;&gt;+move(Vector3D)&lt;/p&gt;&lt;p style=&quot;border-color: var(--border-color); margin: 0px 0px 0px 4px;&quot;&gt;+scale()&lt;/p&gt;" style="verticalAlign=top;align=left;overflow=fill;fontSize=12;fontFamily=Helvetica;html=1;whiteSpace=wrap;" parent="WIyWlLk6GJQsqaUBKTNV-1" vertex="1">
          <mxGeometry x="2955" y="677.5" width="150" height="157.5" as="geometry" />
        </mxCell>
        <mxCell id="rwQv_S5MMSxk42RyZbyw-37" style="edgeStyle=orthogonalEdgeStyle;shape=connector;curved=1;rounded=1;orthogonalLoop=1;jettySize=auto;html=1;exitX=0.5;exitY=0;exitDx=0;exitDy=0;entryX=0.5;entryY=1;entryDx=0;entryDy=0;labelBackgroundColor=default;strokeColor=default;fontFamily=Helvetica;fontSize=11;fontColor=default;endArrow=block;endFill=0;endSize=16;" parent="WIyWlLk6GJQsqaUBKTNV-1" source="rwQv_S5MMSxk42RyZbyw-9" target="rwQv_S5MMSxk42RyZbyw-12" edge="1">
          <mxGeometry relative="1" as="geometry" />
        </mxCell>
        <mxCell id="zreawNuFnjStj_NtMacD-48" style="edgeStyle=orthogonalEdgeStyle;shape=connector;curved=1;rounded=1;orthogonalLoop=1;jettySize=auto;html=1;exitX=0.5;exitY=1;exitDx=0;exitDy=0;entryX=0.5;entryY=0;entryDx=0;entryDy=0;labelBackgroundColor=default;strokeColor=default;fontFamily=Helvetica;fontSize=11;fontColor=default;startArrow=diamondThin;startFill=1;endArrow=open;startSize=14;endSize=12;" parent="WIyWlLk6GJQsqaUBKTNV-1" source="rwQv_S5MMSxk42RyZbyw-9" target="zreawNuFnjStj_NtMacD-47" edge="1">
          <mxGeometry relative="1" as="geometry" />
        </mxCell>
        <mxCell id="rwQv_S5MMSxk42RyZbyw-9" value="&lt;p style=&quot;margin:0px;margin-top:4px;text-align:center;&quot;&gt;&lt;b&gt;FrameModel&lt;/b&gt;&lt;/p&gt;&lt;hr size=&quot;1&quot;&gt;&lt;p style=&quot;margin:0px;margin-left:4px;&quot;&gt;...&lt;/p&gt;&lt;hr size=&quot;1&quot;&gt;&lt;p style=&quot;border-color: var(--border-color); margin: 0px 0px 0px 4px;&quot;&gt;+trasform(Matrix3D)&lt;/p&gt;&lt;p style=&quot;border-color: var(--border-color); margin: 0px 0px 0px 4px;&quot;&gt;+clone()&lt;/p&gt;&lt;p style=&quot;border-color: var(--border-color); margin: 0px 0px 0px 4px;&quot;&gt;+isComposite()&lt;/p&gt;&lt;p style=&quot;border-color: var(--border-color); margin: 0px 0px 0px 4px;&quot;&gt;+isVisible()&lt;/p&gt;" style="verticalAlign=top;align=left;overflow=fill;fontSize=12;fontFamily=Helvetica;html=1;whiteSpace=wrap;" parent="WIyWlLk6GJQsqaUBKTNV-1" vertex="1">
          <mxGeometry x="-423.75" y="1110" width="172.5" height="120" as="geometry" />
        </mxCell>
        <mxCell id="rwQv_S5MMSxk42RyZbyw-35" style="edgeStyle=orthogonalEdgeStyle;shape=connector;orthogonalLoop=1;jettySize=auto;html=1;exitX=0.5;exitY=0;exitDx=0;exitDy=0;entryX=0.5;entryY=1;entryDx=0;entryDy=0;labelBackgroundColor=default;strokeColor=default;fontFamily=Helvetica;fontSize=11;fontColor=default;endArrow=block;endFill=0;endSize=16;curved=1;" parent="WIyWlLk6GJQsqaUBKTNV-1" source="rwQv_S5MMSxk42RyZbyw-10" target="rwQv_S5MMSxk42RyZbyw-3" edge="1">
          <mxGeometry relative="1" as="geometry" />
        </mxCell>
        <mxCell id="rwQv_S5MMSxk42RyZbyw-48" style="edgeStyle=orthogonalEdgeStyle;shape=connector;curved=1;rounded=1;orthogonalLoop=1;jettySize=auto;html=1;exitX=1;exitY=0.25;exitDx=0;exitDy=0;entryX=1;entryY=0.75;entryDx=0;entryDy=0;labelBackgroundColor=default;strokeColor=default;fontFamily=Helvetica;fontSize=11;fontColor=default;startArrow=diamondThin;startFill=0;endArrow=open;startSize=14;endSize=12;" parent="WIyWlLk6GJQsqaUBKTNV-1" source="rwQv_S5MMSxk42RyZbyw-10" target="rwQv_S5MMSxk42RyZbyw-3" edge="1">
          <mxGeometry relative="1" as="geometry" />
        </mxCell>
        <mxCell id="rwQv_S5MMSxk42RyZbyw-10" value="&lt;p style=&quot;margin:0px;margin-top:4px;text-align:center;&quot;&gt;&lt;b&gt;Composite&lt;/b&gt;&lt;/p&gt;&lt;hr size=&quot;1&quot;&gt;&lt;p style=&quot;margin:0px;margin-left:4px;&quot;&gt;...&lt;/p&gt;&lt;hr size=&quot;1&quot;&gt;&lt;p style=&quot;border-color: var(--border-color); margin: 0px 0px 0px 4px;&quot;&gt;+trasform(Matrix3D)&lt;br style=&quot;border-color: var(--border-color);&quot;&gt;&lt;/p&gt;&lt;p style=&quot;border-color: var(--border-color); margin: 0px 0px 0px 4px;&quot;&gt;+clone()&lt;/p&gt;&lt;p style=&quot;border-color: var(--border-color); margin: 0px 0px 0px 4px;&quot;&gt;+add()&lt;/p&gt;&lt;p style=&quot;border-color: var(--border-color); margin: 0px 0px 0px 4px;&quot;&gt;+remove()&lt;/p&gt;&lt;p style=&quot;border-color: var(--border-color); margin: 0px 0px 0px 4px;&quot;&gt;+isComposite()&lt;/p&gt;&lt;p style=&quot;border-color: var(--border-color); margin: 0px 0px 0px 4px;&quot;&gt;+isVisible()&lt;/p&gt;" style="verticalAlign=top;align=left;overflow=fill;fontSize=12;fontFamily=Helvetica;html=1;whiteSpace=wrap;" parent="WIyWlLk6GJQsqaUBKTNV-1" vertex="1">
          <mxGeometry x="-135" y="735" width="165" height="150" as="geometry" />
        </mxCell>
        <mxCell id="zreawNuFnjStj_NtMacD-40" value="" style="edgeStyle=orthogonalEdgeStyle;shape=connector;curved=1;rounded=1;orthogonalLoop=1;jettySize=auto;html=1;labelBackgroundColor=default;strokeColor=default;fontFamily=Helvetica;fontSize=11;fontColor=default;endArrow=block;endFill=0;endSize=16;" parent="WIyWlLk6GJQsqaUBKTNV-1" source="rwQv_S5MMSxk42RyZbyw-12" target="zreawNuFnjStj_NtMacD-38" edge="1">
          <mxGeometry relative="1" as="geometry" />
        </mxCell>
        <mxCell id="rwQv_S5MMSxk42RyZbyw-12" value="&lt;p style=&quot;margin:0px;margin-top:4px;text-align:center;&quot;&gt;&lt;b&gt;BaseModel&lt;/b&gt;&lt;/p&gt;&lt;hr size=&quot;1&quot;&gt;&lt;p style=&quot;margin:0px;margin-left:4px;&quot;&gt;...&lt;/p&gt;&lt;hr size=&quot;1&quot;&gt;&lt;p style=&quot;border-color: var(--border-color); margin: 0px 0px 0px 4px;&quot;&gt;+trasform(Matrix3D)&lt;br style=&quot;border-color: var(--border-color);&quot;&gt;&lt;/p&gt;&lt;p style=&quot;border-color: var(--border-color); margin: 0px 0px 0px 4px;&quot;&gt;+clone()&lt;/p&gt;&lt;p style=&quot;border-color: var(--border-color); margin: 0px 0px 0px 4px;&quot;&gt;+add()&lt;/p&gt;&lt;p style=&quot;border-color: var(--border-color); margin: 0px 0px 0px 4px;&quot;&gt;+remove()&lt;/p&gt;&lt;p style=&quot;border-color: var(--border-color); margin: 0px 0px 0px 4px;&quot;&gt;+isComposite()&lt;/p&gt;&lt;p style=&quot;border-color: var(--border-color); margin: 0px 0px 0px 4px;&quot;&gt;+isVisible()&lt;/p&gt;" style="verticalAlign=top;align=left;overflow=fill;fontSize=12;fontFamily=Helvetica;html=1;whiteSpace=wrap;" parent="WIyWlLk6GJQsqaUBKTNV-1" vertex="1">
          <mxGeometry x="-433.12" y="870" width="191.25" height="150" as="geometry" />
        </mxCell>
        <mxCell id="zreawNuFnjStj_NtMacD-43" style="edgeStyle=orthogonalEdgeStyle;shape=connector;curved=1;rounded=1;orthogonalLoop=1;jettySize=auto;html=1;exitX=0.5;exitY=0;exitDx=0;exitDy=0;entryX=0.5;entryY=1;entryDx=0;entryDy=0;labelBackgroundColor=default;strokeColor=default;fontFamily=Helvetica;fontSize=11;fontColor=default;endArrow=block;endFill=0;endSize=16;" parent="WIyWlLk6GJQsqaUBKTNV-1" source="rwQv_S5MMSxk42RyZbyw-13" target="zreawNuFnjStj_NtMacD-39" edge="1">
          <mxGeometry relative="1" as="geometry" />
        </mxCell>
        <mxCell id="rwQv_S5MMSxk42RyZbyw-13" value="&lt;p style=&quot;margin:0px;margin-top:4px;text-align:center;&quot;&gt;&lt;b&gt;Camera&lt;/b&gt;&lt;/p&gt;&lt;hr size=&quot;1&quot;&gt;&lt;p style=&quot;margin:0px;margin-left:4px;&quot;&gt;...&lt;/p&gt;&lt;hr size=&quot;1&quot;&gt;&lt;p style=&quot;border-color: var(--border-color); margin: 0px 0px 0px 4px;&quot;&gt;+trasform(Matrix3D)&lt;br style=&quot;border-color: var(--border-color);&quot;&gt;&lt;/p&gt;&lt;p style=&quot;border-color: var(--border-color); margin: 0px 0px 0px 4px;&quot;&gt;+clone()&lt;/p&gt;&lt;p style=&quot;border-color: var(--border-color); margin: 0px 0px 0px 4px;&quot;&gt;+isComposite()&lt;/p&gt;&lt;p style=&quot;border-color: var(--border-color); margin: 0px 0px 0px 4px;&quot;&gt;+isVisible()&lt;/p&gt;" style="verticalAlign=top;align=left;overflow=fill;fontSize=12;fontFamily=Helvetica;html=1;whiteSpace=wrap;" parent="WIyWlLk6GJQsqaUBKTNV-1" vertex="1">
          <mxGeometry x="-714.37" y="855" width="176.25" height="120" as="geometry" />
        </mxCell>
        <mxCell id="zreawNuFnjStj_NtMacD-25" style="edgeStyle=orthogonalEdgeStyle;shape=connector;curved=1;rounded=1;orthogonalLoop=1;jettySize=auto;html=1;exitX=0.5;exitY=1;exitDx=0;exitDy=0;entryX=0.5;entryY=0;entryDx=0;entryDy=0;labelBackgroundColor=default;strokeColor=default;fontFamily=Helvetica;fontSize=11;fontColor=default;endArrow=open;endFill=0;startSize=14;endSize=12;" parent="WIyWlLk6GJQsqaUBKTNV-1" source="rwQv_S5MMSxk42RyZbyw-49" target="rwQv_S5MMSxk42RyZbyw-50" edge="1">
          <mxGeometry relative="1" as="geometry" />
        </mxCell>
        <mxCell id="rwQv_S5MMSxk42RyZbyw-49" value="&lt;p style=&quot;margin:0px;margin-top:4px;text-align:center;&quot;&gt;&lt;b&gt;Facade&lt;/b&gt;&lt;/p&gt;&lt;hr size=&quot;1&quot;&gt;&lt;p style=&quot;margin:0px;margin-left:4px;&quot;&gt;...&lt;/p&gt;&lt;hr size=&quot;1&quot;&gt;&lt;p style=&quot;margin:0px;margin-left:4px;&quot;&gt;+execute(BaseCommand)&lt;/p&gt;" style="verticalAlign=top;align=left;overflow=fill;fontSize=12;fontFamily=Helvetica;html=1;whiteSpace=wrap;" parent="WIyWlLk6GJQsqaUBKTNV-1" vertex="1">
          <mxGeometry x="1803" y="30" width="165" height="90" as="geometry" />
        </mxCell>
        <mxCell id="rwQv_S5MMSxk42RyZbyw-50" value="&lt;p style=&quot;margin:0px;margin-top:4px;text-align:center;&quot;&gt;&lt;b&gt;BaseCommand&lt;/b&gt;&lt;/p&gt;&lt;hr size=&quot;1&quot;&gt;&lt;p style=&quot;margin:0px;margin-left:4px;&quot;&gt;...&lt;/p&gt;&lt;hr size=&quot;1&quot;&gt;&lt;p style=&quot;margin:0px;margin-left:4px;&quot;&gt;+execute()&lt;/p&gt;" style="verticalAlign=top;align=left;overflow=fill;fontSize=12;fontFamily=Helvetica;html=1;whiteSpace=wrap;" parent="WIyWlLk6GJQsqaUBKTNV-1" vertex="1">
          <mxGeometry x="1803" y="195" width="165" height="90" as="geometry" />
        </mxCell>
        <mxCell id="rwQv_S5MMSxk42RyZbyw-64" style="edgeStyle=orthogonalEdgeStyle;shape=connector;curved=1;rounded=1;orthogonalLoop=1;jettySize=auto;html=1;exitX=0.5;exitY=0;exitDx=0;exitDy=0;entryX=0.5;entryY=1;entryDx=0;entryDy=0;labelBackgroundColor=default;strokeColor=default;fontFamily=Helvetica;fontSize=11;fontColor=default;endArrow=block;endFill=0;endSize=16;" parent="WIyWlLk6GJQsqaUBKTNV-1" source="rwQv_S5MMSxk42RyZbyw-56" target="rwQv_S5MMSxk42RyZbyw-50" edge="1">
          <mxGeometry relative="1" as="geometry" />
        </mxCell>
        <mxCell id="zreawNuFnjStj_NtMacD-55" style="edgeStyle=orthogonalEdgeStyle;shape=connector;curved=1;rounded=1;orthogonalLoop=1;jettySize=auto;html=1;exitX=0;exitY=0.5;exitDx=0;exitDy=0;entryX=1;entryY=0.5;entryDx=0;entryDy=0;labelBackgroundColor=default;strokeColor=default;fontFamily=Helvetica;fontSize=11;fontColor=default;endArrow=open;endFill=0;startSize=14;endSize=12;dashed=1;" parent="WIyWlLk6GJQsqaUBKTNV-1" source="rwQv_S5MMSxk42RyZbyw-56" target="zreawNuFnjStj_NtMacD-3" edge="1">
          <mxGeometry relative="1" as="geometry">
            <Array as="points">
              <mxPoint x="988" y="510" />
              <mxPoint x="988" y="525" />
              <mxPoint x="435" y="525" />
            </Array>
          </mxGeometry>
        </mxCell>
        <mxCell id="rwQv_S5MMSxk42RyZbyw-56" value="&lt;p style=&quot;margin:0px;margin-top:4px;text-align:center;&quot;&gt;&lt;b&gt;SceneCommand&lt;/b&gt;&lt;/p&gt;&lt;hr size=&quot;1&quot;&gt;&lt;p style=&quot;margin:0px;margin-left:4px;&quot;&gt;...&lt;/p&gt;&lt;hr size=&quot;1&quot;&gt;&lt;p style=&quot;margin:0px;margin-left:4px;&quot;&gt;+execute()&lt;/p&gt;" style="verticalAlign=top;align=left;overflow=fill;fontSize=12;fontFamily=Helvetica;html=1;whiteSpace=wrap;" parent="WIyWlLk6GJQsqaUBKTNV-1" vertex="1">
          <mxGeometry x="1530" y="397.5" width="165" height="90" as="geometry" />
        </mxCell>
        <mxCell id="rwQv_S5MMSxk42RyZbyw-62" style="edgeStyle=orthogonalEdgeStyle;shape=connector;curved=1;rounded=1;orthogonalLoop=1;jettySize=auto;html=1;exitX=0.5;exitY=0;exitDx=0;exitDy=0;entryX=0.5;entryY=1;entryDx=0;entryDy=0;labelBackgroundColor=default;strokeColor=default;fontFamily=Helvetica;fontSize=11;fontColor=default;endArrow=block;endFill=0;endSize=16;" parent="WIyWlLk6GJQsqaUBKTNV-1" source="rwQv_S5MMSxk42RyZbyw-57" target="rwQv_S5MMSxk42RyZbyw-50" edge="1">
          <mxGeometry relative="1" as="geometry" />
        </mxCell>
        <mxCell id="zreawNuFnjStj_NtMacD-56" style="edgeStyle=orthogonalEdgeStyle;shape=connector;curved=1;rounded=1;orthogonalLoop=1;jettySize=auto;html=1;exitX=0;exitY=0.5;exitDx=0;exitDy=0;entryX=0.853;entryY=0.013;entryDx=0;entryDy=0;entryPerimeter=0;dashed=1;labelBackgroundColor=default;strokeColor=default;fontFamily=Helvetica;fontSize=11;fontColor=default;endArrow=open;endFill=0;startSize=14;endSize=12;" parent="WIyWlLk6GJQsqaUBKTNV-1" source="rwQv_S5MMSxk42RyZbyw-57" target="rwQv_S5MMSxk42RyZbyw-12" edge="1">
          <mxGeometry relative="1" as="geometry">
            <Array as="points">
              <mxPoint x="1755" y="510" />
              <mxPoint x="1755" y="645" />
              <mxPoint x="-210" y="645" />
              <mxPoint x="-210" y="825" />
              <mxPoint x="-270" y="825" />
            </Array>
          </mxGeometry>
        </mxCell>
        <mxCell id="UO6ZX9P_JHzc8SSrSmMl-3" style="edgeStyle=orthogonalEdgeStyle;shape=connector;curved=1;rounded=1;orthogonalLoop=1;jettySize=auto;html=1;exitX=0;exitY=0.5;exitDx=0;exitDy=0;entryX=1;entryY=0.75;entryDx=0;entryDy=0;dashed=1;labelBackgroundColor=default;strokeColor=default;fontFamily=Helvetica;fontSize=11;fontColor=default;endArrow=open;endFill=0;startSize=14;endSize=12;" parent="WIyWlLk6GJQsqaUBKTNV-1" source="rwQv_S5MMSxk42RyZbyw-57" target="Vq0MoJa__wd2L4AR59Rn-7" edge="1">
          <mxGeometry relative="1" as="geometry">
            <Array as="points">
              <mxPoint x="855" y="510" />
              <mxPoint x="855" y="615" />
            </Array>
          </mxGeometry>
        </mxCell>
        <mxCell id="rwQv_S5MMSxk42RyZbyw-57" value="&lt;p style=&quot;margin:0px;margin-top:4px;text-align:center;&quot;&gt;&lt;b&gt;Model&lt;/b&gt;&lt;b style=&quot;background-color: initial;&quot;&gt;Command&lt;/b&gt;&lt;/p&gt;&lt;hr size=&quot;1&quot;&gt;&lt;p style=&quot;margin:0px;margin-left:4px;&quot;&gt;...&lt;/p&gt;&lt;hr size=&quot;1&quot;&gt;&lt;p style=&quot;margin:0px;margin-left:4px;&quot;&gt;+execute()&lt;/p&gt;" style="verticalAlign=top;align=left;overflow=fill;fontSize=12;fontFamily=Helvetica;html=1;whiteSpace=wrap;" parent="WIyWlLk6GJQsqaUBKTNV-1" vertex="1">
          <mxGeometry x="1803" y="465" width="165" height="90" as="geometry" />
        </mxCell>
        <mxCell id="rwQv_S5MMSxk42RyZbyw-61" style="edgeStyle=orthogonalEdgeStyle;shape=connector;curved=1;rounded=1;orthogonalLoop=1;jettySize=auto;html=1;exitX=0.5;exitY=0;exitDx=0;exitDy=0;entryX=0.5;entryY=1;entryDx=0;entryDy=0;labelBackgroundColor=default;strokeColor=default;fontFamily=Helvetica;fontSize=11;fontColor=default;endArrow=block;endFill=0;endSize=16;" parent="WIyWlLk6GJQsqaUBKTNV-1" source="rwQv_S5MMSxk42RyZbyw-58" target="rwQv_S5MMSxk42RyZbyw-50" edge="1">
          <mxGeometry relative="1" as="geometry" />
        </mxCell>
        <mxCell id="zreawNuFnjStj_NtMacD-57" style="edgeStyle=orthogonalEdgeStyle;shape=connector;curved=1;rounded=1;orthogonalLoop=1;jettySize=auto;html=1;exitX=0;exitY=1;exitDx=0;exitDy=0;entryX=0.938;entryY=-0.033;entryDx=0;entryDy=0;entryPerimeter=0;dashed=1;labelBackgroundColor=default;strokeColor=default;fontFamily=Helvetica;fontSize=11;fontColor=default;endArrow=open;endFill=0;startSize=14;endSize=12;" parent="WIyWlLk6GJQsqaUBKTNV-1" source="rwQv_S5MMSxk42RyZbyw-58" target="rwQv_S5MMSxk42RyZbyw-13" edge="1">
          <mxGeometry relative="1" as="geometry">
            <Array as="points">
              <mxPoint x="2085" y="660" />
              <mxPoint x="-480" y="660" />
              <mxPoint x="-480" y="851" />
            </Array>
          </mxGeometry>
        </mxCell>
        <mxCell id="rwQv_S5MMSxk42RyZbyw-58" value="&lt;p style=&quot;margin:0px;margin-top:4px;text-align:center;&quot;&gt;&lt;b&gt;CameraCommand&lt;/b&gt;&lt;/p&gt;&lt;hr size=&quot;1&quot;&gt;&lt;p style=&quot;margin:0px;margin-left:4px;&quot;&gt;...&lt;/p&gt;&lt;hr size=&quot;1&quot;&gt;&lt;p style=&quot;margin:0px;margin-left:4px;&quot;&gt;+execute()&lt;/p&gt;" style="verticalAlign=top;align=left;overflow=fill;fontSize=12;fontFamily=Helvetica;html=1;whiteSpace=wrap;" parent="WIyWlLk6GJQsqaUBKTNV-1" vertex="1">
          <mxGeometry x="2085" y="465" width="165" height="90" as="geometry" />
        </mxCell>
        <mxCell id="rwQv_S5MMSxk42RyZbyw-66" style="edgeStyle=orthogonalEdgeStyle;shape=connector;curved=1;rounded=1;orthogonalLoop=1;jettySize=auto;html=1;exitX=0.5;exitY=0;exitDx=0;exitDy=0;entryX=0.5;entryY=1;entryDx=0;entryDy=0;labelBackgroundColor=default;strokeColor=default;fontFamily=Helvetica;fontSize=11;fontColor=default;endArrow=block;endFill=0;endSize=16;" parent="WIyWlLk6GJQsqaUBKTNV-1" source="rwQv_S5MMSxk42RyZbyw-65" target="rwQv_S5MMSxk42RyZbyw-56" edge="1">
          <mxGeometry relative="1" as="geometry" />
        </mxCell>
        <mxCell id="rwQv_S5MMSxk42RyZbyw-65" value="&lt;p style=&quot;margin:0px;margin-top:4px;text-align:center;&quot;&gt;&lt;b&gt;DrawScene&lt;/b&gt;&lt;/p&gt;&lt;hr size=&quot;1&quot;&gt;&lt;p style=&quot;margin:0px;margin-left:4px;&quot;&gt;...&lt;/p&gt;&lt;hr size=&quot;1&quot;&gt;&lt;p style=&quot;margin:0px;margin-left:4px;&quot;&gt;+execute()&lt;/p&gt;" style="verticalAlign=top;align=left;overflow=fill;fontSize=12;fontFamily=Helvetica;html=1;whiteSpace=wrap;" parent="WIyWlLk6GJQsqaUBKTNV-1" vertex="1">
          <mxGeometry x="1530" y="690" width="165" height="90" as="geometry" />
        </mxCell>
        <mxCell id="rwQv_S5MMSxk42RyZbyw-69" style="edgeStyle=orthogonalEdgeStyle;shape=connector;curved=1;rounded=1;orthogonalLoop=1;jettySize=auto;html=1;exitX=0.5;exitY=0;exitDx=0;exitDy=0;entryX=0.5;entryY=1;entryDx=0;entryDy=0;labelBackgroundColor=default;strokeColor=default;fontFamily=Helvetica;fontSize=11;fontColor=default;endArrow=block;endFill=0;endSize=16;" parent="WIyWlLk6GJQsqaUBKTNV-1" source="rwQv_S5MMSxk42RyZbyw-68" target="rwQv_S5MMSxk42RyZbyw-57" edge="1">
          <mxGeometry relative="1" as="geometry" />
        </mxCell>
        <mxCell id="rwQv_S5MMSxk42RyZbyw-68" value="&lt;p style=&quot;margin:0px;margin-top:4px;text-align:center;&quot;&gt;&lt;b&gt;Frame&lt;/b&gt;&lt;b style=&quot;background-color: initial;&quot;&gt;Model&lt;/b&gt;&lt;b style=&quot;background-color: initial;&quot;&gt;Command&lt;/b&gt;&lt;/p&gt;&lt;hr size=&quot;1&quot;&gt;&lt;p style=&quot;margin:0px;margin-left:4px;&quot;&gt;...&lt;/p&gt;&lt;hr size=&quot;1&quot;&gt;&lt;p style=&quot;margin:0px;margin-left:4px;&quot;&gt;+execute()&lt;/p&gt;" style="verticalAlign=top;align=left;overflow=fill;fontSize=12;fontFamily=Helvetica;html=1;whiteSpace=wrap;" parent="WIyWlLk6GJQsqaUBKTNV-1" vertex="1">
          <mxGeometry x="1803" y="647.5" width="165" height="90" as="geometry" />
        </mxCell>
        <mxCell id="rwQv_S5MMSxk42RyZbyw-73" style="edgeStyle=orthogonalEdgeStyle;shape=connector;curved=1;rounded=1;orthogonalLoop=1;jettySize=auto;html=1;exitX=0.5;exitY=0;exitDx=0;exitDy=0;entryX=0.5;entryY=1;entryDx=0;entryDy=0;labelBackgroundColor=default;strokeColor=default;fontFamily=Helvetica;fontSize=11;fontColor=default;endArrow=block;endFill=0;endSize=16;" parent="WIyWlLk6GJQsqaUBKTNV-1" source="rwQv_S5MMSxk42RyZbyw-72" target="rwQv_S5MMSxk42RyZbyw-68" edge="1">
          <mxGeometry relative="1" as="geometry" />
        </mxCell>
        <mxCell id="rwQv_S5MMSxk42RyZbyw-72" value="&lt;p style=&quot;margin:0px;margin-top:4px;text-align:center;&quot;&gt;&lt;b&gt;AddFrame&lt;/b&gt;&lt;b style=&quot;background-color: initial;&quot;&gt;Model&lt;/b&gt;&lt;/p&gt;&lt;hr size=&quot;1&quot;&gt;&lt;p style=&quot;margin:0px;margin-left:4px;&quot;&gt;...&lt;/p&gt;&lt;hr size=&quot;1&quot;&gt;&lt;p style=&quot;margin:0px;margin-left:4px;&quot;&gt;+execute()&lt;/p&gt;" style="verticalAlign=top;align=left;overflow=fill;fontSize=12;fontFamily=Helvetica;html=1;whiteSpace=wrap;" parent="WIyWlLk6GJQsqaUBKTNV-1" vertex="1">
          <mxGeometry x="1803" y="817.5" width="165" height="90" as="geometry" />
        </mxCell>
        <mxCell id="rwQv_S5MMSxk42RyZbyw-77" style="edgeStyle=orthogonalEdgeStyle;shape=connector;curved=1;rounded=1;orthogonalLoop=1;jettySize=auto;html=1;exitX=0.5;exitY=0;exitDx=0;exitDy=0;entryX=0.5;entryY=1;entryDx=0;entryDy=0;labelBackgroundColor=default;strokeColor=default;fontFamily=Helvetica;fontSize=11;fontColor=default;endArrow=block;endFill=0;endSize=16;" parent="WIyWlLk6GJQsqaUBKTNV-1" source="rwQv_S5MMSxk42RyZbyw-74" target="rwQv_S5MMSxk42RyZbyw-68" edge="1">
          <mxGeometry relative="1" as="geometry">
            <Array as="points">
              <mxPoint x="1710" y="931" />
              <mxPoint x="1710" y="765" />
              <mxPoint x="1886" y="765" />
            </Array>
          </mxGeometry>
        </mxCell>
        <mxCell id="rwQv_S5MMSxk42RyZbyw-74" value="&lt;p style=&quot;margin:0px;margin-top:4px;text-align:center;&quot;&gt;&lt;b&gt;RemoveFrame&lt;/b&gt;&lt;b style=&quot;background-color: initial;&quot;&gt;Model&lt;/b&gt;&lt;/p&gt;&lt;hr size=&quot;1&quot;&gt;&lt;p style=&quot;margin:0px;margin-left:4px;&quot;&gt;...&lt;/p&gt;&lt;hr size=&quot;1&quot;&gt;&lt;p style=&quot;margin:0px;margin-left:4px;&quot;&gt;+execute()&lt;/p&gt;" style="verticalAlign=top;align=left;overflow=fill;fontSize=12;fontFamily=Helvetica;html=1;whiteSpace=wrap;" parent="WIyWlLk6GJQsqaUBKTNV-1" vertex="1">
          <mxGeometry x="1803" y="930" width="165" height="90" as="geometry" />
        </mxCell>
        <mxCell id="rwQv_S5MMSxk42RyZbyw-81" style="edgeStyle=orthogonalEdgeStyle;shape=connector;curved=1;rounded=1;orthogonalLoop=1;jettySize=auto;html=1;exitX=0.5;exitY=0;exitDx=0;exitDy=0;entryX=0.5;entryY=1;entryDx=0;entryDy=0;labelBackgroundColor=default;strokeColor=default;fontFamily=Helvetica;fontSize=11;fontColor=default;endArrow=block;endFill=0;endSize=16;" parent="WIyWlLk6GJQsqaUBKTNV-1" source="rwQv_S5MMSxk42RyZbyw-76" target="rwQv_S5MMSxk42RyZbyw-68" edge="1">
          <mxGeometry relative="1" as="geometry">
            <Array as="points">
              <mxPoint x="1695" y="1051" />
              <mxPoint x="1695" y="765" />
              <mxPoint x="1886" y="765" />
            </Array>
          </mxGeometry>
        </mxCell>
        <mxCell id="rwQv_S5MMSxk42RyZbyw-76" value="&lt;p style=&quot;margin:0px;margin-top:4px;text-align:center;&quot;&gt;&lt;b&gt;Move&lt;/b&gt;&lt;b style=&quot;background-color: initial;&quot;&gt;Frame&lt;/b&gt;&lt;b style=&quot;background-color: initial;&quot;&gt;Model&lt;/b&gt;&lt;/p&gt;&lt;hr size=&quot;1&quot;&gt;&lt;p style=&quot;margin:0px;margin-left:4px;&quot;&gt;...&lt;/p&gt;&lt;hr size=&quot;1&quot;&gt;&lt;p style=&quot;margin:0px;margin-left:4px;&quot;&gt;+execute()&lt;/p&gt;" style="verticalAlign=top;align=left;overflow=fill;fontSize=12;fontFamily=Helvetica;html=1;whiteSpace=wrap;" parent="WIyWlLk6GJQsqaUBKTNV-1" vertex="1">
          <mxGeometry x="1803" y="1050" width="165" height="90" as="geometry" />
        </mxCell>
        <mxCell id="rwQv_S5MMSxk42RyZbyw-89" style="edgeStyle=orthogonalEdgeStyle;shape=connector;curved=1;rounded=1;orthogonalLoop=1;jettySize=auto;html=1;exitX=0.5;exitY=0;exitDx=0;exitDy=0;entryX=0.5;entryY=1;entryDx=0;entryDy=0;labelBackgroundColor=default;strokeColor=default;fontFamily=Helvetica;fontSize=11;fontColor=default;endArrow=block;endFill=0;endSize=16;" parent="WIyWlLk6GJQsqaUBKTNV-1" source="rwQv_S5MMSxk42RyZbyw-83" target="rwQv_S5MMSxk42RyZbyw-58" edge="1">
          <mxGeometry relative="1" as="geometry" />
        </mxCell>
        <mxCell id="rwQv_S5MMSxk42RyZbyw-83" value="&lt;p style=&quot;margin:0px;margin-top:4px;text-align:center;&quot;&gt;&lt;b&gt;AddCamera&lt;/b&gt;&lt;/p&gt;&lt;hr size=&quot;1&quot;&gt;&lt;p style=&quot;margin:0px;margin-left:4px;&quot;&gt;...&lt;/p&gt;&lt;hr size=&quot;1&quot;&gt;&lt;p style=&quot;margin:0px;margin-left:4px;&quot;&gt;+execute()&lt;/p&gt;" style="verticalAlign=top;align=left;overflow=fill;fontSize=12;fontFamily=Helvetica;html=1;whiteSpace=wrap;" parent="WIyWlLk6GJQsqaUBKTNV-1" vertex="1">
          <mxGeometry x="2085" y="615" width="165" height="90" as="geometry" />
        </mxCell>
        <mxCell id="rwQv_S5MMSxk42RyZbyw-90" style="edgeStyle=orthogonalEdgeStyle;shape=connector;curved=1;rounded=1;orthogonalLoop=1;jettySize=auto;html=1;exitX=0.5;exitY=0;exitDx=0;exitDy=0;labelBackgroundColor=default;strokeColor=default;fontFamily=Helvetica;fontSize=11;fontColor=default;endArrow=block;endFill=0;endSize=16;" parent="WIyWlLk6GJQsqaUBKTNV-1" source="rwQv_S5MMSxk42RyZbyw-85" edge="1">
          <mxGeometry relative="1" as="geometry">
            <mxPoint x="2167.8823529411766" y="555" as="targetPoint" />
            <Array as="points">
              <mxPoint x="2438" y="600" />
              <mxPoint x="2168" y="600" />
            </Array>
          </mxGeometry>
        </mxCell>
        <mxCell id="rwQv_S5MMSxk42RyZbyw-85" value="&lt;p style=&quot;margin:0px;margin-top:4px;text-align:center;&quot;&gt;&lt;b&gt;RemoveCamera&lt;/b&gt;&lt;/p&gt;&lt;hr size=&quot;1&quot;&gt;&lt;p style=&quot;margin:0px;margin-left:4px;&quot;&gt;...&lt;/p&gt;&lt;hr size=&quot;1&quot;&gt;&lt;p style=&quot;margin:0px;margin-left:4px;&quot;&gt;+execute()&lt;/p&gt;" style="verticalAlign=top;align=left;overflow=fill;fontSize=12;fontFamily=Helvetica;html=1;whiteSpace=wrap;" parent="WIyWlLk6GJQsqaUBKTNV-1" vertex="1">
          <mxGeometry x="2085" y="730" width="165" height="90" as="geometry" />
        </mxCell>
        <mxCell id="rwQv_S5MMSxk42RyZbyw-91" style="edgeStyle=orthogonalEdgeStyle;shape=connector;curved=1;rounded=1;orthogonalLoop=1;jettySize=auto;html=1;exitX=0.5;exitY=0;exitDx=0;exitDy=0;entryX=0.5;entryY=1;entryDx=0;entryDy=0;labelBackgroundColor=default;strokeColor=default;fontFamily=Helvetica;fontSize=11;fontColor=default;endArrow=block;endFill=0;endSize=16;" parent="WIyWlLk6GJQsqaUBKTNV-1" source="rwQv_S5MMSxk42RyZbyw-87" target="rwQv_S5MMSxk42RyZbyw-58" edge="1">
          <mxGeometry relative="1" as="geometry">
            <Array as="points">
              <mxPoint x="2460" y="855" />
              <mxPoint x="2460" y="600" />
              <mxPoint x="2168" y="600" />
            </Array>
          </mxGeometry>
        </mxCell>
        <mxCell id="rwQv_S5MMSxk42RyZbyw-87" value="&lt;p style=&quot;margin:0px;margin-top:4px;text-align:center;&quot;&gt;&lt;b&gt;MoveCamera&lt;/b&gt;&lt;/p&gt;&lt;hr size=&quot;1&quot;&gt;&lt;p style=&quot;margin:0px;margin-left:4px;&quot;&gt;...&lt;/p&gt;&lt;hr size=&quot;1&quot;&gt;&lt;p style=&quot;margin:0px;margin-left:4px;&quot;&gt;+execute()&lt;/p&gt;" style="verticalAlign=top;align=left;overflow=fill;fontSize=12;fontFamily=Helvetica;html=1;whiteSpace=wrap;" parent="WIyWlLk6GJQsqaUBKTNV-1" vertex="1">
          <mxGeometry x="2085" y="855" width="165" height="90" as="geometry" />
        </mxCell>
        <mxCell id="rwQv_S5MMSxk42RyZbyw-95" style="edgeStyle=orthogonalEdgeStyle;shape=connector;curved=1;rounded=1;orthogonalLoop=1;jettySize=auto;html=1;exitX=0.5;exitY=0;exitDx=0;exitDy=0;entryX=0.5;entryY=1;entryDx=0;entryDy=0;labelBackgroundColor=default;strokeColor=default;fontFamily=Helvetica;fontSize=11;fontColor=default;endArrow=block;endFill=0;endSize=16;" parent="WIyWlLk6GJQsqaUBKTNV-1" source="rwQv_S5MMSxk42RyZbyw-92" target="rwQv_S5MMSxk42RyZbyw-68" edge="1">
          <mxGeometry relative="1" as="geometry">
            <Array as="points">
              <mxPoint x="1680" y="1169" />
              <mxPoint x="1680" y="765" />
              <mxPoint x="1886" y="765" />
            </Array>
          </mxGeometry>
        </mxCell>
        <mxCell id="rwQv_S5MMSxk42RyZbyw-92" value="&lt;p style=&quot;margin:0px;margin-top:4px;text-align:center;&quot;&gt;&lt;b&gt;Scale&lt;/b&gt;&lt;b style=&quot;background-color: initial;&quot;&gt;Frame&lt;/b&gt;&lt;b style=&quot;background-color: initial;&quot;&gt;Model&lt;/b&gt;&lt;/p&gt;&lt;hr size=&quot;1&quot;&gt;&lt;p style=&quot;margin:0px;margin-left:4px;&quot;&gt;...&lt;/p&gt;&lt;hr size=&quot;1&quot;&gt;&lt;p style=&quot;margin:0px;margin-left:4px;&quot;&gt;+execute()&lt;/p&gt;" style="verticalAlign=top;align=left;overflow=fill;fontSize=12;fontFamily=Helvetica;html=1;whiteSpace=wrap;" parent="WIyWlLk6GJQsqaUBKTNV-1" vertex="1">
          <mxGeometry x="1803" y="1169" width="165" height="90" as="geometry" />
        </mxCell>
        <mxCell id="rwQv_S5MMSxk42RyZbyw-96" style="edgeStyle=orthogonalEdgeStyle;shape=connector;curved=1;rounded=1;orthogonalLoop=1;jettySize=auto;html=1;exitX=0.5;exitY=0;exitDx=0;exitDy=0;entryX=0.5;entryY=1;entryDx=0;entryDy=0;labelBackgroundColor=default;strokeColor=default;fontFamily=Helvetica;fontSize=11;fontColor=default;endArrow=block;endFill=0;endSize=16;" parent="WIyWlLk6GJQsqaUBKTNV-1" source="rwQv_S5MMSxk42RyZbyw-93" target="rwQv_S5MMSxk42RyZbyw-68" edge="1">
          <mxGeometry relative="1" as="geometry">
            <Array as="points">
              <mxPoint x="1665" y="1291" />
              <mxPoint x="1665" y="765" />
              <mxPoint x="1886" y="765" />
            </Array>
          </mxGeometry>
        </mxCell>
        <mxCell id="rwQv_S5MMSxk42RyZbyw-93" value="&lt;p style=&quot;margin:0px;margin-top:4px;text-align:center;&quot;&gt;&lt;b style=&quot;background-color: initial;&quot;&gt;RotateFrame&lt;/b&gt;&lt;b style=&quot;background-color: initial;&quot;&gt;Model&lt;/b&gt;&lt;/p&gt;&lt;hr size=&quot;1&quot;&gt;&lt;p style=&quot;margin:0px;margin-left:4px;&quot;&gt;...&lt;/p&gt;&lt;hr size=&quot;1&quot;&gt;&lt;p style=&quot;margin:0px;margin-left:4px;&quot;&gt;+execute()&lt;/p&gt;" style="verticalAlign=top;align=left;overflow=fill;fontSize=12;fontFamily=Helvetica;html=1;whiteSpace=wrap;" parent="WIyWlLk6GJQsqaUBKTNV-1" vertex="1">
          <mxGeometry x="1803" y="1290" width="165" height="90" as="geometry" />
        </mxCell>
        <mxCell id="rwQv_S5MMSxk42RyZbyw-98" style="edgeStyle=orthogonalEdgeStyle;shape=connector;curved=1;rounded=1;orthogonalLoop=1;jettySize=auto;html=1;exitX=0.5;exitY=0;exitDx=0;exitDy=0;entryX=0.5;entryY=1;entryDx=0;entryDy=0;labelBackgroundColor=default;strokeColor=default;fontFamily=Helvetica;fontSize=11;fontColor=default;endArrow=block;endFill=0;endSize=16;" parent="WIyWlLk6GJQsqaUBKTNV-1" source="rwQv_S5MMSxk42RyZbyw-94" target="rwQv_S5MMSxk42RyZbyw-68" edge="1">
          <mxGeometry relative="1" as="geometry">
            <Array as="points">
              <mxPoint x="1650" y="1411" />
              <mxPoint x="1650" y="765" />
              <mxPoint x="1886" y="765" />
            </Array>
          </mxGeometry>
        </mxCell>
        <mxCell id="rwQv_S5MMSxk42RyZbyw-94" value="&lt;p style=&quot;margin:0px;margin-top:4px;text-align:center;&quot;&gt;&lt;b&gt;Rotate&lt;/b&gt;&lt;b style=&quot;background-color: initial;&quot;&gt;Frame&lt;/b&gt;&lt;b style=&quot;background-color: initial;&quot;&gt;Model&lt;/b&gt;&lt;/p&gt;&lt;hr size=&quot;1&quot;&gt;&lt;p style=&quot;margin:0px;margin-left:4px;&quot;&gt;...&lt;/p&gt;&lt;hr size=&quot;1&quot;&gt;&lt;p style=&quot;margin:0px;margin-left:4px;&quot;&gt;+execute()&lt;/p&gt;" style="verticalAlign=top;align=left;overflow=fill;fontSize=12;fontFamily=Helvetica;html=1;whiteSpace=wrap;" parent="WIyWlLk6GJQsqaUBKTNV-1" vertex="1">
          <mxGeometry x="1803" y="1410" width="165" height="90" as="geometry" />
        </mxCell>
        <mxCell id="zreawNuFnjStj_NtMacD-0" value="&lt;p style=&quot;margin:0px;margin-top:4px;text-align:center;&quot;&gt;&lt;b&gt;BaseManager&lt;/b&gt;&lt;/p&gt;&lt;hr size=&quot;1&quot;&gt;&lt;p style=&quot;margin:0px;margin-left:4px;&quot;&gt;...&lt;/p&gt;&lt;hr size=&quot;1&quot;&gt;&lt;p style=&quot;margin:0px;margin-left:4px;&quot;&gt;...&lt;/p&gt;" style="verticalAlign=top;align=left;overflow=fill;fontSize=12;fontFamily=Helvetica;html=1;whiteSpace=wrap;" parent="WIyWlLk6GJQsqaUBKTNV-1" vertex="1">
          <mxGeometry x="735" y="225" width="165" height="75" as="geometry" />
        </mxCell>
        <mxCell id="zreawNuFnjStj_NtMacD-10" style="edgeStyle=orthogonalEdgeStyle;shape=connector;curved=1;rounded=1;orthogonalLoop=1;jettySize=auto;html=1;exitX=0.5;exitY=0;exitDx=0;exitDy=0;entryX=0.5;entryY=1;entryDx=0;entryDy=0;labelBackgroundColor=default;strokeColor=default;fontFamily=Helvetica;fontSize=11;fontColor=default;endArrow=block;endFill=0;endSize=16;" parent="WIyWlLk6GJQsqaUBKTNV-1" source="zreawNuFnjStj_NtMacD-1" target="zreawNuFnjStj_NtMacD-0" edge="1">
          <mxGeometry relative="1" as="geometry" />
        </mxCell>
        <mxCell id="zreawNuFnjStj_NtMacD-23" style="edgeStyle=orthogonalEdgeStyle;shape=connector;curved=1;rounded=1;orthogonalLoop=1;jettySize=auto;html=1;exitX=0.5;exitY=1;exitDx=0;exitDy=0;entryX=0.5;entryY=0;entryDx=0;entryDy=0;labelBackgroundColor=default;strokeColor=default;fontFamily=Helvetica;fontSize=11;fontColor=default;endArrow=open;endFill=0;startSize=14;endSize=12;" parent="WIyWlLk6GJQsqaUBKTNV-1" source="zreawNuFnjStj_NtMacD-1" target="zreawNuFnjStj_NtMacD-15" edge="1">
          <mxGeometry relative="1" as="geometry" />
        </mxCell>
        <mxCell id="UO6ZX9P_JHzc8SSrSmMl-2" style="edgeStyle=orthogonalEdgeStyle;shape=connector;curved=1;rounded=1;orthogonalLoop=1;jettySize=auto;html=1;exitX=0;exitY=0.5;exitDx=0;exitDy=0;entryX=1;entryY=0.25;entryDx=0;entryDy=0;dashed=1;labelBackgroundColor=default;strokeColor=default;fontFamily=Helvetica;fontSize=11;fontColor=default;endArrow=open;endFill=0;startSize=14;endSize=12;" parent="WIyWlLk6GJQsqaUBKTNV-1" source="zreawNuFnjStj_NtMacD-1" target="Vq0MoJa__wd2L4AR59Rn-7" edge="1">
          <mxGeometry relative="1" as="geometry">
            <Array as="points">
              <mxPoint x="450" y="430" />
              <mxPoint x="450" y="555" />
            </Array>
          </mxGeometry>
        </mxCell>
        <mxCell id="zreawNuFnjStj_NtMacD-1" value="&lt;p style=&quot;margin:0px;margin-top:4px;text-align:center;&quot;&gt;&lt;b&gt;LoadManager&lt;/b&gt;&lt;/p&gt;&lt;hr size=&quot;1&quot;&gt;&lt;p style=&quot;margin:0px;margin-left:4px;&quot;&gt;...&lt;/p&gt;&lt;hr size=&quot;1&quot;&gt;&lt;p style=&quot;margin:0px;margin-left:4px;&quot;&gt;+loadModel()&lt;/p&gt;" style="verticalAlign=top;align=left;overflow=fill;fontSize=12;fontFamily=Helvetica;html=1;whiteSpace=wrap;" parent="WIyWlLk6GJQsqaUBKTNV-1" vertex="1">
          <mxGeometry x="510" y="392.5" width="165" height="75" as="geometry" />
        </mxCell>
        <mxCell id="zreawNuFnjStj_NtMacD-11" style="edgeStyle=orthogonalEdgeStyle;shape=connector;curved=1;rounded=1;orthogonalLoop=1;jettySize=auto;html=1;exitX=0.5;exitY=0;exitDx=0;exitDy=0;entryX=0.5;entryY=1;entryDx=0;entryDy=0;labelBackgroundColor=default;strokeColor=default;fontFamily=Helvetica;fontSize=11;fontColor=default;endArrow=block;endFill=0;endSize=16;" parent="WIyWlLk6GJQsqaUBKTNV-1" source="zreawNuFnjStj_NtMacD-3" target="zreawNuFnjStj_NtMacD-0" edge="1">
          <mxGeometry relative="1" as="geometry" />
        </mxCell>
        <mxCell id="zreawNuFnjStj_NtMacD-36" style="edgeStyle=orthogonalEdgeStyle;shape=connector;curved=1;rounded=1;orthogonalLoop=1;jettySize=auto;html=1;exitX=0.5;exitY=1;exitDx=0;exitDy=0;entryX=0.5;entryY=0;entryDx=0;entryDy=0;labelBackgroundColor=default;strokeColor=default;fontFamily=Helvetica;fontSize=11;fontColor=default;startArrow=diamondThin;startFill=0;endArrow=open;startSize=14;endSize=12;" parent="WIyWlLk6GJQsqaUBKTNV-1" source="zreawNuFnjStj_NtMacD-3" target="Vq0MoJa__wd2L4AR59Rn-7" edge="1">
          <mxGeometry relative="1" as="geometry" />
        </mxCell>
        <mxCell id="zreawNuFnjStj_NtMacD-3" value="&lt;p style=&quot;margin:0px;margin-top:4px;text-align:center;&quot;&gt;&lt;b&gt;Scene&lt;/b&gt;&lt;b style=&quot;background-color: initial;&quot;&gt;Manager&lt;/b&gt;&lt;/p&gt;&lt;hr size=&quot;1&quot;&gt;&lt;p style=&quot;margin:0px;margin-left:4px;&quot;&gt;...&lt;/p&gt;&lt;hr size=&quot;1&quot;&gt;&lt;p style=&quot;margin:0px;margin-left:4px;&quot;&gt;+getScene()&lt;/p&gt;&lt;p style=&quot;margin:0px;margin-left:4px;&quot;&gt;+setScene()&lt;/p&gt;" style="verticalAlign=top;align=left;overflow=fill;fontSize=12;fontFamily=Helvetica;html=1;whiteSpace=wrap;" parent="WIyWlLk6GJQsqaUBKTNV-1" vertex="1">
          <mxGeometry x="249" y="390" width="165" height="90" as="geometry" />
        </mxCell>
        <mxCell id="zreawNuFnjStj_NtMacD-14" style="edgeStyle=orthogonalEdgeStyle;shape=connector;curved=1;rounded=1;orthogonalLoop=1;jettySize=auto;html=1;exitX=0.5;exitY=0;exitDx=0;exitDy=0;entryX=0.5;entryY=1;entryDx=0;entryDy=0;labelBackgroundColor=default;strokeColor=default;fontFamily=Helvetica;fontSize=11;fontColor=default;endArrow=block;endFill=0;endSize=16;" parent="WIyWlLk6GJQsqaUBKTNV-1" source="zreawNuFnjStj_NtMacD-4" target="zreawNuFnjStj_NtMacD-0" edge="1">
          <mxGeometry relative="1" as="geometry" />
        </mxCell>
        <mxCell id="UO6ZX9P_JHzc8SSrSmMl-0" style="edgeStyle=orthogonalEdgeStyle;shape=connector;curved=1;rounded=1;orthogonalLoop=1;jettySize=auto;html=1;exitX=0;exitY=0.5;exitDx=0;exitDy=0;entryX=1;entryY=0.5;entryDx=0;entryDy=0;dashed=1;labelBackgroundColor=default;strokeColor=default;fontFamily=Helvetica;fontSize=11;fontColor=default;endArrow=open;endFill=0;startSize=14;endSize=12;" parent="WIyWlLk6GJQsqaUBKTNV-1" source="zreawNuFnjStj_NtMacD-4" target="Vq0MoJa__wd2L4AR59Rn-7" edge="1">
          <mxGeometry relative="1" as="geometry">
            <Array as="points">
              <mxPoint x="810" y="495" />
              <mxPoint x="535" y="495" />
              <mxPoint x="535" y="585" />
            </Array>
          </mxGeometry>
        </mxCell>
        <mxCell id="zreawNuFnjStj_NtMacD-4" value="&lt;p style=&quot;margin:0px;margin-top:4px;text-align:center;&quot;&gt;&lt;b&gt;TransformManager&lt;/b&gt;&lt;/p&gt;&lt;hr size=&quot;1&quot;&gt;&lt;p style=&quot;margin:0px;margin-left:4px;&quot;&gt;...&lt;/p&gt;&lt;hr size=&quot;1&quot;&gt;&lt;p style=&quot;margin:0px;margin-left:4px;&quot;&gt;+move()&lt;/p&gt;&lt;p style=&quot;margin:0px;margin-left:4px;&quot;&gt;+scale()&lt;/p&gt;&lt;p style=&quot;margin:0px;margin-left:4px;&quot;&gt;+rotate()&lt;/p&gt;" style="verticalAlign=top;align=left;overflow=fill;fontSize=12;fontFamily=Helvetica;html=1;whiteSpace=wrap;" parent="WIyWlLk6GJQsqaUBKTNV-1" vertex="1">
          <mxGeometry x="810" y="390" width="165" height="105" as="geometry" />
        </mxCell>
        <mxCell id="zreawNuFnjStj_NtMacD-8" style="edgeStyle=orthogonalEdgeStyle;shape=connector;curved=1;rounded=1;orthogonalLoop=1;jettySize=auto;html=1;exitX=0.5;exitY=0;exitDx=0;exitDy=0;entryX=0.5;entryY=1;entryDx=0;entryDy=0;labelBackgroundColor=default;strokeColor=default;fontFamily=Helvetica;fontSize=11;fontColor=default;endArrow=block;endFill=0;endSize=16;" parent="WIyWlLk6GJQsqaUBKTNV-1" source="zreawNuFnjStj_NtMacD-5" target="rwQv_S5MMSxk42RyZbyw-58" edge="1">
          <mxGeometry relative="1" as="geometry">
            <Array as="points">
              <mxPoint x="2490" y="975" />
              <mxPoint x="2490" y="600" />
              <mxPoint x="2168" y="600" />
            </Array>
          </mxGeometry>
        </mxCell>
        <mxCell id="zreawNuFnjStj_NtMacD-5" value="&lt;p style=&quot;margin:0px;margin-top:4px;text-align:center;&quot;&gt;&lt;b&gt;RotateCamera&lt;/b&gt;&lt;/p&gt;&lt;hr size=&quot;1&quot;&gt;&lt;p style=&quot;margin:0px;margin-left:4px;&quot;&gt;...&lt;/p&gt;&lt;hr size=&quot;1&quot;&gt;&lt;p style=&quot;margin:0px;margin-left:4px;&quot;&gt;+execute()&lt;/p&gt;" style="verticalAlign=top;align=left;overflow=fill;fontSize=12;fontFamily=Helvetica;html=1;whiteSpace=wrap;" parent="WIyWlLk6GJQsqaUBKTNV-1" vertex="1">
          <mxGeometry x="2085" y="975" width="165" height="90" as="geometry" />
        </mxCell>
        <mxCell id="zreawNuFnjStj_NtMacD-13" style="edgeStyle=orthogonalEdgeStyle;shape=connector;curved=1;rounded=1;orthogonalLoop=1;jettySize=auto;html=1;exitX=0.5;exitY=0;exitDx=0;exitDy=0;entryX=0.5;entryY=1;entryDx=0;entryDy=0;labelBackgroundColor=default;strokeColor=default;fontFamily=Helvetica;fontSize=11;fontColor=default;endArrow=block;endFill=0;endSize=16;" parent="WIyWlLk6GJQsqaUBKTNV-1" source="zreawNuFnjStj_NtMacD-9" target="zreawNuFnjStj_NtMacD-0" edge="1">
          <mxGeometry relative="1" as="geometry" />
        </mxCell>
        <mxCell id="zreawNuFnjStj_NtMacD-52" style="edgeStyle=orthogonalEdgeStyle;shape=connector;curved=1;rounded=1;orthogonalLoop=1;jettySize=auto;html=1;exitX=0.5;exitY=1;exitDx=0;exitDy=0;entryX=0.5;entryY=0;entryDx=0;entryDy=0;labelBackgroundColor=default;strokeColor=default;fontFamily=Helvetica;fontSize=11;fontColor=default;endArrow=open;endFill=0;startSize=14;endSize=12;" parent="WIyWlLk6GJQsqaUBKTNV-1" source="zreawNuFnjStj_NtMacD-9" target="zreawNuFnjStj_NtMacD-28" edge="1">
          <mxGeometry relative="1" as="geometry" />
        </mxCell>
        <mxCell id="UO6ZX9P_JHzc8SSrSmMl-1" style="edgeStyle=orthogonalEdgeStyle;shape=connector;curved=1;rounded=1;orthogonalLoop=1;jettySize=auto;html=1;exitX=0;exitY=0.25;exitDx=0;exitDy=0;entryX=1;entryY=0.25;entryDx=0;entryDy=0;dashed=1;labelBackgroundColor=default;strokeColor=default;fontFamily=Helvetica;fontSize=11;fontColor=default;endArrow=open;endFill=0;startSize=14;endSize=12;" parent="WIyWlLk6GJQsqaUBKTNV-1" source="zreawNuFnjStj_NtMacD-9" target="zreawNuFnjStj_NtMacD-3" edge="1">
          <mxGeometry relative="1" as="geometry">
            <Array as="points">
              <mxPoint x="1078" y="360" />
              <mxPoint x="495" y="360" />
              <mxPoint x="495" y="413" />
            </Array>
          </mxGeometry>
        </mxCell>
        <mxCell id="zreawNuFnjStj_NtMacD-9" value="&lt;p style=&quot;margin:0px;margin-top:4px;text-align:center;&quot;&gt;&lt;b&gt;DrawManager&lt;/b&gt;&lt;/p&gt;&lt;hr size=&quot;1&quot;&gt;&lt;p style=&quot;margin:0px;margin-left:4px;&quot;&gt;...&lt;/p&gt;&lt;hr size=&quot;1&quot;&gt;&lt;p style=&quot;margin:0px;margin-left:4px;&quot;&gt;+draw()&lt;/p&gt;" style="verticalAlign=top;align=left;overflow=fill;fontSize=12;fontFamily=Helvetica;html=1;whiteSpace=wrap;" parent="WIyWlLk6GJQsqaUBKTNV-1" vertex="1">
          <mxGeometry x="1078" y="390" width="163" height="75" as="geometry" />
        </mxCell>
        <mxCell id="zreawNuFnjStj_NtMacD-24" style="edgeStyle=orthogonalEdgeStyle;shape=connector;curved=1;rounded=1;orthogonalLoop=1;jettySize=auto;html=1;exitX=0.5;exitY=1;exitDx=0;exitDy=0;entryX=0.5;entryY=0;entryDx=0;entryDy=0;labelBackgroundColor=default;strokeColor=default;fontFamily=Helvetica;fontSize=11;fontColor=default;endArrow=open;endFill=0;startSize=14;endSize=12;" parent="WIyWlLk6GJQsqaUBKTNV-1" source="zreawNuFnjStj_NtMacD-15" target="zreawNuFnjStj_NtMacD-16" edge="1">
          <mxGeometry relative="1" as="geometry" />
        </mxCell>
        <mxCell id="zreawNuFnjStj_NtMacD-15" value="&lt;p style=&quot;margin:0px;margin-top:4px;text-align:center;&quot;&gt;&lt;b&gt;LoadDirectorSolution&lt;/b&gt;&lt;/p&gt;&lt;hr size=&quot;1&quot;&gt;&lt;p style=&quot;margin:0px;margin-left:4px;&quot;&gt;...&lt;/p&gt;&lt;hr size=&quot;1&quot;&gt;&lt;p style=&quot;margin:0px;margin-left:4px;&quot;&gt;+create()&lt;/p&gt;" style="verticalAlign=top;align=left;overflow=fill;fontSize=12;fontFamily=Helvetica;html=1;whiteSpace=wrap;" parent="WIyWlLk6GJQsqaUBKTNV-1" vertex="1">
          <mxGeometry x="375" y="677.5" width="165" height="75" as="geometry" />
        </mxCell>
        <mxCell id="zreawNuFnjStj_NtMacD-22" style="edgeStyle=orthogonalEdgeStyle;shape=connector;curved=1;rounded=1;orthogonalLoop=1;jettySize=auto;html=1;exitX=1;exitY=0.5;exitDx=0;exitDy=0;entryX=0;entryY=0.5;entryDx=0;entryDy=0;labelBackgroundColor=default;strokeColor=default;fontFamily=Helvetica;fontSize=11;fontColor=default;startArrow=diamondThin;startFill=0;endArrow=open;startSize=14;endSize=12;" parent="WIyWlLk6GJQsqaUBKTNV-1" source="zreawNuFnjStj_NtMacD-16" target="zreawNuFnjStj_NtMacD-18" edge="1">
          <mxGeometry relative="1" as="geometry" />
        </mxCell>
        <mxCell id="zreawNuFnjStj_NtMacD-16" value="&lt;p style=&quot;margin:0px;margin-top:4px;text-align:center;&quot;&gt;&lt;b&gt;BaseLoadDirector&lt;/b&gt;&lt;/p&gt;&lt;hr size=&quot;1&quot;&gt;&lt;p style=&quot;margin:0px;margin-left:4px;&quot;&gt;...&lt;/p&gt;&lt;hr size=&quot;1&quot;&gt;&lt;p style=&quot;margin:0px;margin-left:4px;&quot;&gt;+create()&lt;/p&gt;" style="verticalAlign=top;align=left;overflow=fill;fontSize=12;fontFamily=Helvetica;html=1;whiteSpace=wrap;" parent="WIyWlLk6GJQsqaUBKTNV-1" vertex="1">
          <mxGeometry x="375" y="808.75" width="165" height="75" as="geometry" />
        </mxCell>
        <mxCell id="zreawNuFnjStj_NtMacD-21" style="edgeStyle=orthogonalEdgeStyle;shape=connector;curved=1;rounded=1;orthogonalLoop=1;jettySize=auto;html=1;exitX=0.5;exitY=0;exitDx=0;exitDy=0;entryX=0.5;entryY=1;entryDx=0;entryDy=0;labelBackgroundColor=default;strokeColor=default;fontFamily=Helvetica;fontSize=11;fontColor=default;endArrow=block;endFill=0;endSize=16;" parent="WIyWlLk6GJQsqaUBKTNV-1" source="zreawNuFnjStj_NtMacD-17" target="zreawNuFnjStj_NtMacD-16" edge="1">
          <mxGeometry relative="1" as="geometry" />
        </mxCell>
        <mxCell id="zreawNuFnjStj_NtMacD-17" value="&lt;p style=&quot;margin:0px;margin-top:4px;text-align:center;&quot;&gt;&lt;b&gt;FrameModelLoadDirector&lt;/b&gt;&lt;/p&gt;&lt;hr size=&quot;1&quot;&gt;&lt;p style=&quot;margin:0px;margin-left:4px;&quot;&gt;...&lt;/p&gt;&lt;hr size=&quot;1&quot;&gt;&lt;p style=&quot;margin:0px;margin-left:4px;&quot;&gt;+create()&lt;/p&gt;" style="verticalAlign=top;align=left;overflow=fill;fontSize=12;fontFamily=Helvetica;html=1;whiteSpace=wrap;" parent="WIyWlLk6GJQsqaUBKTNV-1" vertex="1">
          <mxGeometry x="375" y="925" width="165" height="75" as="geometry" />
        </mxCell>
        <mxCell id="zreawNuFnjStj_NtMacD-18" value="&lt;p style=&quot;margin:0px;margin-top:4px;text-align:center;&quot;&gt;&lt;b&gt;BaseModelBuilder&lt;/b&gt;&lt;/p&gt;&lt;hr size=&quot;1&quot;&gt;&lt;p style=&quot;margin:0px;margin-left:4px;&quot;&gt;...&lt;/p&gt;&lt;hr size=&quot;1&quot;&gt;&lt;p style=&quot;margin:0px;margin-left:4px;&quot;&gt;+getModel()&lt;/p&gt;" style="verticalAlign=top;align=left;overflow=fill;fontSize=12;fontFamily=Helvetica;html=1;whiteSpace=wrap;" parent="WIyWlLk6GJQsqaUBKTNV-1" vertex="1">
          <mxGeometry x="645" y="808.75" width="165" height="75" as="geometry" />
        </mxCell>
        <mxCell id="zreawNuFnjStj_NtMacD-20" style="edgeStyle=orthogonalEdgeStyle;shape=connector;curved=1;rounded=1;orthogonalLoop=1;jettySize=auto;html=1;exitX=0.5;exitY=0;exitDx=0;exitDy=0;entryX=0.5;entryY=1;entryDx=0;entryDy=0;labelBackgroundColor=default;strokeColor=default;fontFamily=Helvetica;fontSize=11;fontColor=default;endArrow=block;endFill=0;endSize=16;" parent="WIyWlLk6GJQsqaUBKTNV-1" source="zreawNuFnjStj_NtMacD-19" target="zreawNuFnjStj_NtMacD-18" edge="1">
          <mxGeometry relative="1" as="geometry" />
        </mxCell>
        <mxCell id="zreawNuFnjStj_NtMacD-19" value="&lt;p style=&quot;margin:0px;margin-top:4px;text-align:center;&quot;&gt;&lt;b&gt;FrameModelBuilder&lt;/b&gt;&lt;/p&gt;&lt;hr size=&quot;1&quot;&gt;&lt;p style=&quot;margin:0px;margin-left:4px;&quot;&gt;...&lt;/p&gt;&lt;hr size=&quot;1&quot;&gt;&lt;p style=&quot;border-color: var(--border-color); margin: 0px 0px 0px 4px;&quot;&gt;+buildCenter()&lt;/p&gt;&lt;p style=&quot;border-color: var(--border-color); margin: 0px 0px 0px 4px;&quot;&gt;+buildDots()&lt;/p&gt;&lt;p style=&quot;border-color: var(--border-color); margin: 0px 0px 0px 4px;&quot;&gt;+buildSegments()&lt;/p&gt;&lt;p style=&quot;border-color: var(--border-color); margin: 0px 0px 0px 4px;&quot;&gt;+getModel()&lt;/p&gt;" style="verticalAlign=top;align=left;overflow=fill;fontSize=12;fontFamily=Helvetica;html=1;whiteSpace=wrap;" parent="WIyWlLk6GJQsqaUBKTNV-1" vertex="1">
          <mxGeometry x="645" y="925" width="165" height="125" as="geometry" />
        </mxCell>
        <mxCell id="zreawNuFnjStj_NtMacD-27" style="edgeStyle=orthogonalEdgeStyle;shape=connector;curved=1;rounded=1;orthogonalLoop=1;jettySize=auto;html=1;exitX=0.5;exitY=1;exitDx=0;exitDy=0;entryX=0.5;entryY=0;entryDx=0;entryDy=0;labelBackgroundColor=default;strokeColor=default;fontFamily=Helvetica;fontSize=11;fontColor=default;endArrow=open;endFill=0;startSize=14;endSize=12;" parent="WIyWlLk6GJQsqaUBKTNV-1" source="zreawNuFnjStj_NtMacD-28" target="zreawNuFnjStj_NtMacD-30" edge="1">
          <mxGeometry relative="1" as="geometry" />
        </mxCell>
        <mxCell id="zreawNuFnjStj_NtMacD-28" value="&lt;p style=&quot;margin:0px;margin-top:4px;text-align:center;&quot;&gt;&lt;b&gt;DrawSolution&lt;/b&gt;&lt;/p&gt;&lt;hr size=&quot;1&quot;&gt;&lt;p style=&quot;margin:0px;margin-left:4px;&quot;&gt;...&lt;/p&gt;&lt;hr size=&quot;1&quot;&gt;&lt;p style=&quot;margin:0px;margin-left:4px;&quot;&gt;+create()&lt;/p&gt;" style="verticalAlign=top;align=left;overflow=fill;fontSize=12;fontFamily=Helvetica;html=1;whiteSpace=wrap;" parent="WIyWlLk6GJQsqaUBKTNV-1" vertex="1">
          <mxGeometry x="930" y="547" width="165" height="75" as="geometry" />
        </mxCell>
        <mxCell id="zreawNuFnjStj_NtMacD-29" style="edgeStyle=orthogonalEdgeStyle;shape=connector;curved=1;rounded=1;orthogonalLoop=1;jettySize=auto;html=1;exitX=1;exitY=0.5;exitDx=0;exitDy=0;entryX=0;entryY=0.5;entryDx=0;entryDy=0;labelBackgroundColor=default;strokeColor=default;fontFamily=Helvetica;fontSize=11;fontColor=default;startArrow=diamondThin;startFill=0;endArrow=open;startSize=14;endSize=12;" parent="WIyWlLk6GJQsqaUBKTNV-1" source="zreawNuFnjStj_NtMacD-30" target="zreawNuFnjStj_NtMacD-33" edge="1">
          <mxGeometry relative="1" as="geometry" />
        </mxCell>
        <mxCell id="zreawNuFnjStj_NtMacD-30" value="&lt;p style=&quot;margin:0px;margin-top:4px;text-align:center;&quot;&gt;&lt;b&gt;DrawAbstractFactory&lt;/b&gt;&lt;/p&gt;&lt;hr size=&quot;1&quot;&gt;&lt;p style=&quot;margin:0px;margin-left:4px;&quot;&gt;...&lt;/p&gt;&lt;hr size=&quot;1&quot;&gt;&lt;p style=&quot;margin:0px;margin-left:4px;&quot;&gt;+create()&lt;/p&gt;" style="verticalAlign=top;align=left;overflow=fill;fontSize=12;fontFamily=Helvetica;html=1;whiteSpace=wrap;" parent="WIyWlLk6GJQsqaUBKTNV-1" vertex="1">
          <mxGeometry x="930" y="716.25" width="165" height="75" as="geometry" />
        </mxCell>
        <mxCell id="zreawNuFnjStj_NtMacD-31" style="edgeStyle=orthogonalEdgeStyle;shape=connector;curved=1;rounded=1;orthogonalLoop=1;jettySize=auto;html=1;exitX=0.5;exitY=0;exitDx=0;exitDy=0;entryX=0.5;entryY=1;entryDx=0;entryDy=0;labelBackgroundColor=default;strokeColor=default;fontFamily=Helvetica;fontSize=11;fontColor=default;endArrow=block;endFill=0;endSize=16;" parent="WIyWlLk6GJQsqaUBKTNV-1" source="zreawNuFnjStj_NtMacD-32" target="zreawNuFnjStj_NtMacD-30" edge="1">
          <mxGeometry relative="1" as="geometry" />
        </mxCell>
        <mxCell id="zreawNuFnjStj_NtMacD-32" value="&lt;p style=&quot;margin:0px;margin-top:4px;text-align:center;&quot;&gt;&lt;b&gt;QtFactory&lt;/b&gt;&lt;/p&gt;&lt;hr size=&quot;1&quot;&gt;&lt;p style=&quot;margin:0px;margin-left:4px;&quot;&gt;...&lt;/p&gt;&lt;hr size=&quot;1&quot;&gt;&lt;p style=&quot;margin:0px;margin-left:4px;&quot;&gt;+create()&lt;/p&gt;" style="verticalAlign=top;align=left;overflow=fill;fontSize=12;fontFamily=Helvetica;html=1;whiteSpace=wrap;" parent="WIyWlLk6GJQsqaUBKTNV-1" vertex="1">
          <mxGeometry x="930" y="832.5" width="165" height="75" as="geometry" />
        </mxCell>
        <mxCell id="zreawNuFnjStj_NtMacD-33" value="&lt;p style=&quot;margin:0px;margin-top:4px;text-align:center;&quot;&gt;&lt;b&gt;BasePen&lt;/b&gt;&lt;/p&gt;&lt;hr size=&quot;1&quot;&gt;&lt;p style=&quot;margin:0px;margin-left:4px;&quot;&gt;...&lt;/p&gt;&lt;hr size=&quot;1&quot;&gt;&lt;p style=&quot;margin:0px;margin-left:4px;&quot;&gt;+drawLine()&lt;/p&gt;&lt;p style=&quot;margin:0px;margin-left:4px;&quot;&gt;+clear()&lt;/p&gt;" style="verticalAlign=top;align=left;overflow=fill;fontSize=12;fontFamily=Helvetica;html=1;whiteSpace=wrap;" parent="WIyWlLk6GJQsqaUBKTNV-1" vertex="1">
          <mxGeometry x="1200" y="716.25" width="165" height="93.75" as="geometry" />
        </mxCell>
        <mxCell id="zreawNuFnjStj_NtMacD-34" style="edgeStyle=orthogonalEdgeStyle;shape=connector;curved=1;rounded=1;orthogonalLoop=1;jettySize=auto;html=1;exitX=0.5;exitY=0;exitDx=0;exitDy=0;entryX=0.5;entryY=1;entryDx=0;entryDy=0;labelBackgroundColor=default;strokeColor=default;fontFamily=Helvetica;fontSize=11;fontColor=default;endArrow=block;endFill=0;endSize=16;" parent="WIyWlLk6GJQsqaUBKTNV-1" source="zreawNuFnjStj_NtMacD-35" target="zreawNuFnjStj_NtMacD-33" edge="1">
          <mxGeometry relative="1" as="geometry" />
        </mxCell>
        <mxCell id="zreawNuFnjStj_NtMacD-35" value="&lt;p style=&quot;margin:0px;margin-top:4px;text-align:center;&quot;&gt;&lt;b&gt;QtPen&lt;/b&gt;&lt;/p&gt;&lt;hr size=&quot;1&quot;&gt;&lt;p style=&quot;margin:0px;margin-left:4px;&quot;&gt;...&lt;/p&gt;&lt;hr size=&quot;1&quot;&gt;&lt;p style=&quot;border-color: var(--border-color); margin: 0px 0px 0px 4px;&quot;&gt;+drawLine()&lt;/p&gt;&lt;p style=&quot;border-color: var(--border-color); margin: 0px 0px 0px 4px;&quot;&gt;+clear()&lt;/p&gt;" style="verticalAlign=top;align=left;overflow=fill;fontSize=12;fontFamily=Helvetica;html=1;whiteSpace=wrap;" parent="WIyWlLk6GJQsqaUBKTNV-1" vertex="1">
          <mxGeometry x="1207.5" y="855" width="150" height="90" as="geometry" />
        </mxCell>
        <mxCell id="zreawNuFnjStj_NtMacD-44" style="edgeStyle=orthogonalEdgeStyle;shape=connector;curved=1;rounded=1;orthogonalLoop=1;jettySize=auto;html=1;exitX=0.5;exitY=0;exitDx=0;exitDy=0;labelBackgroundColor=default;strokeColor=default;fontFamily=Helvetica;fontSize=11;fontColor=default;endArrow=block;endFill=0;endSize=16;" parent="WIyWlLk6GJQsqaUBKTNV-1" source="zreawNuFnjStj_NtMacD-38" target="rwQv_S5MMSxk42RyZbyw-3" edge="1">
          <mxGeometry relative="1" as="geometry" />
        </mxCell>
        <mxCell id="zreawNuFnjStj_NtMacD-38" value="&lt;p style=&quot;margin:0px;margin-top:4px;text-align:center;&quot;&gt;&lt;b&gt;VisibleModel&lt;/b&gt;&lt;/p&gt;&lt;hr size=&quot;1&quot;&gt;&lt;p style=&quot;margin:0px;margin-left:4px;&quot;&gt;...&lt;/p&gt;&lt;hr size=&quot;1&quot;&gt;&lt;p style=&quot;border-color: var(--border-color); margin: 0px 0px 0px 4px;&quot;&gt;+isVisible()&lt;br&gt;&lt;/p&gt;" style="verticalAlign=top;align=left;overflow=fill;fontSize=12;fontFamily=Helvetica;html=1;whiteSpace=wrap;" parent="WIyWlLk6GJQsqaUBKTNV-1" vertex="1">
          <mxGeometry x="-431.25" y="737.5" width="187.5" height="75" as="geometry" />
        </mxCell>
        <mxCell id="zreawNuFnjStj_NtMacD-46" style="edgeStyle=orthogonalEdgeStyle;shape=connector;curved=1;rounded=1;orthogonalLoop=1;jettySize=auto;html=1;exitX=0.5;exitY=0;exitDx=0;exitDy=0;entryX=0.5;entryY=1;entryDx=0;entryDy=0;labelBackgroundColor=default;strokeColor=default;fontFamily=Helvetica;fontSize=11;fontColor=default;endArrow=block;endFill=0;endSize=16;" parent="WIyWlLk6GJQsqaUBKTNV-1" source="zreawNuFnjStj_NtMacD-39" target="rwQv_S5MMSxk42RyZbyw-3" edge="1">
          <mxGeometry relative="1" as="geometry" />
        </mxCell>
        <mxCell id="zreawNuFnjStj_NtMacD-39" value="&lt;p style=&quot;margin:0px;margin-top:4px;text-align:center;&quot;&gt;&lt;b&gt;InvisibleModel&lt;/b&gt;&lt;/p&gt;&lt;hr size=&quot;1&quot;&gt;&lt;p style=&quot;margin:0px;margin-left:4px;&quot;&gt;...&lt;/p&gt;&lt;hr size=&quot;1&quot;&gt;&lt;p style=&quot;border-color: var(--border-color); margin: 0px 0px 0px 4px;&quot;&gt;+isVisible()&lt;br&gt;&lt;/p&gt;" style="verticalAlign=top;align=left;overflow=fill;fontSize=12;fontFamily=Helvetica;html=1;whiteSpace=wrap;" parent="WIyWlLk6GJQsqaUBKTNV-1" vertex="1">
          <mxGeometry x="-720" y="725.63" width="187.5" height="75" as="geometry" />
        </mxCell>
        <mxCell id="zreawNuFnjStj_NtMacD-49" style="edgeStyle=orthogonalEdgeStyle;shape=connector;curved=1;rounded=1;orthogonalLoop=1;jettySize=auto;html=1;exitX=0;exitY=0.5;exitDx=0;exitDy=0;entryX=1;entryY=0.5;entryDx=0;entryDy=0;labelBackgroundColor=default;strokeColor=default;fontFamily=Helvetica;fontSize=11;fontColor=default;startArrow=diamondThin;startFill=1;endArrow=open;startSize=14;endSize=12;" parent="WIyWlLk6GJQsqaUBKTNV-1" source="zreawNuFnjStj_NtMacD-47" target="rwQv_S5MMSxk42RyZbyw-4" edge="1">
          <mxGeometry relative="1" as="geometry" />
        </mxCell>
        <mxCell id="zreawNuFnjStj_NtMacD-50" style="edgeStyle=orthogonalEdgeStyle;shape=connector;curved=1;rounded=1;orthogonalLoop=1;jettySize=auto;html=1;exitX=1;exitY=0.5;exitDx=0;exitDy=0;entryX=0;entryY=0.5;entryDx=0;entryDy=0;labelBackgroundColor=default;strokeColor=default;fontFamily=Helvetica;fontSize=11;fontColor=default;startArrow=diamondThin;startFill=1;endArrow=open;startSize=14;endSize=12;" parent="WIyWlLk6GJQsqaUBKTNV-1" source="zreawNuFnjStj_NtMacD-47" target="rwQv_S5MMSxk42RyZbyw-7" edge="1">
          <mxGeometry relative="1" as="geometry" />
        </mxCell>
        <mxCell id="zreawNuFnjStj_NtMacD-47" value="&lt;p style=&quot;margin:0px;margin-top:4px;text-align:center;&quot;&gt;&lt;b&gt;FrameFigure&lt;/b&gt;&lt;/p&gt;&lt;hr size=&quot;1&quot;&gt;&lt;p style=&quot;margin:0px;margin-left:4px;&quot;&gt;...&lt;/p&gt;&lt;hr size=&quot;1&quot;&gt;&lt;p style=&quot;border-color: var(--border-color); margin: 0px 0px 0px 4px;&quot;&gt;+trasform(Matrix3D)&lt;/p&gt;&lt;p style=&quot;border-color: var(--border-color); margin: 0px 0px 0px 4px;&quot;&gt;+clone()&lt;/p&gt;&lt;p style=&quot;border-color: var(--border-color); margin: 0px 0px 0px 4px;&quot;&gt;+isComposite()&lt;/p&gt;" style="verticalAlign=top;align=left;overflow=fill;fontSize=12;fontFamily=Helvetica;html=1;whiteSpace=wrap;" parent="WIyWlLk6GJQsqaUBKTNV-1" vertex="1">
          <mxGeometry x="-427.49" y="1296.25" width="180" height="105" as="geometry" />
        </mxCell>
        <mxCell id="zreawNuFnjStj_NtMacD-54" style="edgeStyle=orthogonalEdgeStyle;shape=connector;curved=1;rounded=1;orthogonalLoop=1;jettySize=auto;html=1;exitX=0.5;exitY=0;exitDx=0;exitDy=0;entryX=0.5;entryY=1;entryDx=0;entryDy=0;labelBackgroundColor=default;strokeColor=default;fontFamily=Helvetica;fontSize=11;fontColor=default;endArrow=block;endFill=0;endSize=16;" parent="WIyWlLk6GJQsqaUBKTNV-1" source="zreawNuFnjStj_NtMacD-53" target="rwQv_S5MMSxk42RyZbyw-56" edge="1">
          <mxGeometry relative="1" as="geometry" />
        </mxCell>
        <mxCell id="zreawNuFnjStj_NtMacD-53" value="&lt;p style=&quot;margin:0px;margin-top:4px;text-align:center;&quot;&gt;&lt;b&gt;LoadScene&lt;/b&gt;&lt;/p&gt;&lt;hr size=&quot;1&quot;&gt;&lt;p style=&quot;margin:0px;margin-left:4px;&quot;&gt;...&lt;/p&gt;&lt;hr size=&quot;1&quot;&gt;&lt;p style=&quot;margin:0px;margin-left:4px;&quot;&gt;+execute()&lt;/p&gt;" style="verticalAlign=top;align=left;overflow=fill;fontSize=12;fontFamily=Helvetica;html=1;whiteSpace=wrap;" parent="WIyWlLk6GJQsqaUBKTNV-1" vertex="1">
          <mxGeometry x="1410" y="793.75" width="165" height="90" as="geometry" />
        </mxCell>
      </root>
    </mxGraphModel>
  </diagram>
</mxfile>
